<?xml version="1.0" encoding="UTF-8" standalone="no"?>
<svg width="24" height="24" viewBox="0 0 24 24" fill="none" xmlns="http://www.w3.org/2000/svg">
  <!-- Left brace -->
  <path d="M4 5C4 3.5 4.5 3 6 3H6.5" stroke="currentColor" stroke-width="1.5" stroke-linecap="round"/>
  <path d="M4 5V10C4 11.5 3.5 12 2 12" stroke="currentColor" stroke-width="1.5" stroke-linecap="round"/>
  <path d="M4 19C4 20.5 4.5 21 6 21H6.5" stroke="currentColor" stroke-width="1.5" stroke-linecap="round"/>
  <path d="M4 19V14C4 12.5 3.5 12 2 12" stroke="currentColor" stroke-width="1.5" stroke-linecap="round"/>
  
  <!-- Compass (centered with space between braces) -->
  <circle cx="12" cy="12" r="6" stroke="currentColor" stroke-width="1.5" fill="none"/>
  <circle cx="12" cy="12" r="1.2" fill="currentColor"/>
  
  <!-- North pointer -->
  <path d="M12 12L12 7" stroke="currentColor" stroke-width="1.5" stroke-linecap="round"/>
  <path d="M11 8L12 6L13 8" fill="none" stroke="currentColor" stroke-width="1.2" stroke-linecap="round" stroke-linejoin="round"/>
  
  <!-- Cardinal directions -->
  <path d="M12 12L12 17" stroke="currentColor" stroke-width="1" stroke-linecap="round"/>
  <path d="M12 12L17 12" stroke="currentColor" stroke-width="1" stroke-linecap="round"/>
  <path d="M12 12L7 12" stroke="currentColor" stroke-width="1" stroke-linecap="round"/>
  
  <!-- Diagonal lines -->
  <path d="M12 12L15.5 8.5" stroke="currentColor" stroke-width="0.75" stroke-linecap="round"/>
  <path d="M12 12L15.5 15.5" stroke="currentColor" stroke-width="0.75" stroke-linecap="round"/>
  <path d="M12 12L8.5 15.5" stroke="currentColor" stroke-width="0.75" stroke-linecap="round"/>
  <path d="M12 12L8.5 8.5" stroke="currentColor" stroke-width="0.75" stroke-linecap="round"/>
  
  <!-- Right brace -->
  <path d="M20 5C20 3.5 19.5 3 18 3H17.5" stroke="currentColor" stroke-width="1.5" stroke-linecap="round"/>
  <path d="M20 5V10C20 11.5 20.5 12 22 12" stroke="currentColor" stroke-width="1.5" stroke-linecap="round"/>
  <path d="M20 19C20 20.5 19.5 21 18 21H17.5" stroke="currentColor" stroke-width="1.5" stroke-linecap="round"/>
  <path d="M20 19V14C20 12.5 20.5 12 22 12" stroke="currentColor" stroke-width="1.5" stroke-linecap="round"/>
</svg>